STARTFONT 2.1
COMMENT Generated from X font `screen-bold18' by getbdf
FONT screen-bold18
SIZE 18 72 72
FONTBOUNDINGBOX 10 17 0 -4
STARTPROPERTIES 27
FONT_ASCENT 13
FONT_DESCENT 5
DEFAULT_CHAR 0
DEC_DEVICE_FONTNAMES 272
FONTNAME_REGISTRY ""
FAMILY_NAME "Screen"
FOUNDRY "SGI"
WEIGHT_NAME "Bold"
SLANT "R"
SETWIDTH_NAME "Normal"
ADD_STYLE_NAME ""
PIXEL_SIZE 18
POINT_SIZE 180
RESOLUTION_X 72
RESOLUTION_Y 72
SPACING "M"
AVERAGE_WIDTH 100
CHARSET_REGISTRY ""
CHARSET_ENCODING "ASCII"
CHARSET_COLLECTIONS "ASCII"
FULL_NAME "Screen Bold"
CAP_HEIGHT 12
X_HEIGHT 9
FONT "-SGI-Screen-Bold-R-Normal--18-180-72-72-M-100--ASCII"
WEIGHT 202
RESOLUTION 99
QUAD_WIDTH 10
ENDPROPERTIES
CHARS 95
STARTCHAR 32
ENCODING 32
SWIDTH 556 0
DWIDTH 10 0
BBX 1 1 0 0
BITMAP
0000
ENDCHAR
STARTCHAR 33
ENCODING 33
SWIDTH 556 0
DWIDTH 10 0
BBX 2 12 4 0
BITMAP
c000
c000
c000
c000
c000
c000
c000
c000
0000
0000
c000
c000
ENDCHAR
STARTCHAR 34
ENCODING 34
SWIDTH 556 0
DWIDTH 10 0
BBX 6 4 2 8
BITMAP
cc00
cc00
cc00
cc00
ENDCHAR
STARTCHAR 35
ENCODING 35
SWIDTH 556 0
DWIDTH 10 0
BBX 10 11 0 1
BITMAP
190000
190000
190000
7f0000
330000
330000
330000
ff0000
660000
660000
660000
ENDCHAR
STARTCHAR 36
ENCODING 36
SWIDTH 556 0
DWIDTH 10 0
BBX 7 15 1 -2
BITMAP
1000
1000
7c00
d600
d600
d000
7000
1c00
1600
1600
d600
d600
7c00
1000
1000
ENDCHAR
STARTCHAR 37
ENCODING 37
SWIDTH 556 0
DWIDTH 10 0
BBX 8 12 1 0
BITMAP
7300
9300
9600
9600
ec00
1800
1800
3700
6900
6900
c900
ce00
ENDCHAR
STARTCHAR 38
ENCODING 38
SWIDTH 556 0
DWIDTH 10 0
BBX 9 12 0 0
BITMAP
3800
6c00
6c00
6c00
3800
3800
6c00
c780
c300
c300
6780
3e80
ENDCHAR
STARTCHAR 39
ENCODING 39
SWIDTH 556 0
DWIDTH 10 0
BBX 4 4 3 8
BITMAP
3000
3000
6000
c000
ENDCHAR
STARTCHAR 40
ENCODING 40
SWIDTH 556 0
DWIDTH 10 0
BBX 6 17 2 -4
BITMAP
0c00
1800
3000
6000
6000
c000
c000
c000
c000
c000
c000
c000
6000
6000
3000
1800
0c00
ENDCHAR
STARTCHAR 41
ENCODING 41
SWIDTH 556 0
DWIDTH 10 0
BBX 6 17 2 -4
BITMAP
c000
6000
3000
1800
1800
0c00
0c00
0c00
0c00
0c00
0c00
0c00
1800
1800
3000
6000
c000
ENDCHAR
STARTCHAR 42
ENCODING 42
SWIDTH 556 0
DWIDTH 10 0
BBX 8 10 1 1
BITMAP
1800
1800
d300
ff00
3c00
3c00
ff00
cb00
1800
1800
ENDCHAR
STARTCHAR 43
ENCODING 43
SWIDTH 556 0
DWIDTH 10 0
BBX 8 8 1 1
BITMAP
1800
1800
1800
ff00
ff00
1800
1800
1800
ENDCHAR
STARTCHAR 44
ENCODING 44
SWIDTH 556 0
DWIDTH 10 0
BBX 3 4 3 -2
BITMAP
6000
6000
2000
c000
ENDCHAR
STARTCHAR 45
ENCODING 45
SWIDTH 556 0
DWIDTH 10 0
BBX 8 2 1 4
BITMAP
ff00
ff00
ENDCHAR
STARTCHAR 46
ENCODING 46
SWIDTH 556 0
DWIDTH 10 0
BBX 2 2 3 0
BITMAP
c000
c000
ENDCHAR
STARTCHAR 47
ENCODING 47
SWIDTH 556 0
DWIDTH 10 0
BBX 8 14 1 -1
BITMAP
0300
0300
0600
0600
0c00
0c00
1800
1800
3000
3000
6000
6000
c000
c000
ENDCHAR
STARTCHAR 48
ENCODING 48
SWIDTH 556 0
DWIDTH 10 0
BBX 8 12 1 0
BITMAP
3c00
6600
c300
c700
cf00
db00
f300
e300
c300
c300
6600
3c00
ENDCHAR
STARTCHAR 49
ENCODING 49
SWIDTH 556 0
DWIDTH 10 0
BBX 6 12 2 0
BITMAP
3000
f000
3000
3000
3000
3000
3000
3000
3000
3000
3000
fc00
ENDCHAR
STARTCHAR 50
ENCODING 50
SWIDTH 556 0
DWIDTH 10 0
BBX 8 12 1 0
BITMAP
3c00
6600
c300
c300
0300
0600
0c00
1800
3000
6000
c000
ff00
ENDCHAR
STARTCHAR 51
ENCODING 51
SWIDTH 556 0
DWIDTH 10 0
BBX 8 12 1 0
BITMAP
3c00
6600
c300
0300
0600
1c00
0600
0300
0300
c300
6600
3c00
ENDCHAR
STARTCHAR 52
ENCODING 52
SWIDTH 556 0
DWIDTH 10 0
BBX 8 12 1 0
BITMAP
0600
0e00
1e00
3600
3600
6600
6600
c600
ff00
0600
0600
0600
ENDCHAR
STARTCHAR 53
ENCODING 53
SWIDTH 556 0
DWIDTH 10 0
BBX 8 12 1 0
BITMAP
ff00
c000
c000
c000
fc00
0600
0300
0300
0300
c300
6600
3c00
ENDCHAR
STARTCHAR 54
ENCODING 54
SWIDTH 556 0
DWIDTH 10 0
BBX 8 12 1 0
BITMAP
3e00
6300
c000
c000
dc00
e200
c300
c300
c300
c300
6600
3c00
ENDCHAR
STARTCHAR 55
ENCODING 55
SWIDTH 556 0
DWIDTH 10 0
BBX 8 12 1 0
BITMAP
ff00
0300
0300
0600
0600
0c00
0c00
1800
1800
3000
3000
3000
ENDCHAR
STARTCHAR 56
ENCODING 56
SWIDTH 556 0
DWIDTH 10 0
BBX 8 12 1 0
BITMAP
3c00
6600
c300
c300
6600
3c00
6600
c300
c300
c300
6600
3c00
ENDCHAR
STARTCHAR 57
ENCODING 57
SWIDTH 556 0
DWIDTH 10 0
BBX 8 12 1 0
BITMAP
3c00
6600
c300
c300
c300
6700
3b00
0300
0300
0300
c600
7c00
ENDCHAR
STARTCHAR 58
ENCODING 58
SWIDTH 556 0
DWIDTH 10 0
BBX 2 8 4 0
BITMAP
c000
c000
0000
0000
0000
0000
c000
c000
ENDCHAR
STARTCHAR 59
ENCODING 59
SWIDTH 556 0
DWIDTH 10 0
BBX 3 10 3 -2
BITMAP
6000
6000
0000
0000
0000
0000
6000
6000
2000
c000
ENDCHAR
STARTCHAR 60
ENCODING 60
SWIDTH 556 0
DWIDTH 10 0
BBX 7 13 1 -1
BITMAP
0200
0600
0c00
1800
3000
6000
c000
6000
3000
1800
0c00
0600
0200
ENDCHAR
STARTCHAR 61
ENCODING 61
SWIDTH 556 0
DWIDTH 10 0
BBX 8 6 1 2
BITMAP
ff00
ff00
0000
0000
ff00
ff00
ENDCHAR
STARTCHAR 62
ENCODING 62
SWIDTH 556 0
DWIDTH 10 0
BBX 7 13 2 -1
BITMAP
8000
c000
6000
3000
1800
0c00
0600
0c00
1800
3000
6000
c000
8000
ENDCHAR
STARTCHAR 63
ENCODING 63
SWIDTH 556 0
DWIDTH 10 0
BBX 8 12 1 0
BITMAP
3c00
6600
c300
c300
0300
0600
0c00
1800
1800
0000
1800
1800
ENDCHAR
STARTCHAR 64
ENCODING 64
SWIDTH 556 0
DWIDTH 10 0
BBX 8 12 1 0
BITMAP
1c00
2200
4300
c300
cf00
d300
d300
d300
ce00
4000
2300
1e00
ENDCHAR
STARTCHAR 65
ENCODING 65
SWIDTH 556 0
DWIDTH 10 0
BBX 9 12 0 0
BITMAP
0800
1c00
1c00
3600
3600
3600
6300
6300
7f00
c180
c180
c180
ENDCHAR
STARTCHAR 66
ENCODING 66
SWIDTH 556 0
DWIDTH 10 0
BBX 8 12 1 0
BITMAP
fc00
c600
c300
c300
c600
fc00
c600
c300
c300
c300
c600
fc00
ENDCHAR
STARTCHAR 67
ENCODING 67
SWIDTH 556 0
DWIDTH 10 0
BBX 8 12 1 0
BITMAP
3c00
6600
c300
c000
c000
c000
c000
c000
c000
c300
6600
3c00
ENDCHAR
STARTCHAR 68
ENCODING 68
SWIDTH 556 0
DWIDTH 10 0
BBX 8 12 1 0
BITMAP
fc00
c600
c300
c300
c300
c300
c300
c300
c300
c300
c600
fc00
ENDCHAR
STARTCHAR 69
ENCODING 69
SWIDTH 556 0
DWIDTH 10 0
BBX 8 12 1 0
BITMAP
ff00
c000
c000
c000
c000
fe00
c000
c000
c000
c000
c000
ff00
ENDCHAR
STARTCHAR 70
ENCODING 70
SWIDTH 556 0
DWIDTH 10 0
BBX 8 12 1 0
BITMAP
ff00
c000
c000
c000
c000
fe00
c000
c000
c000
c000
c000
c000
ENDCHAR
STARTCHAR 71
ENCODING 71
SWIDTH 556 0
DWIDTH 10 0
BBX 8 12 1 0
BITMAP
3c00
6600
c300
c000
c000
c000
cf00
c300
c300
c300
6700
3d00
ENDCHAR
STARTCHAR 72
ENCODING 72
SWIDTH 556 0
DWIDTH 10 0
BBX 8 12 1 0
BITMAP
c300
c300
c300
c300
c300
ff00
c300
c300
c300
c300
c300
c300
ENDCHAR
STARTCHAR 73
ENCODING 73
SWIDTH 556 0
DWIDTH 10 0
BBX 4 12 3 0
BITMAP
f000
6000
6000
6000
6000
6000
6000
6000
6000
6000
6000
f000
ENDCHAR
STARTCHAR 74
ENCODING 74
SWIDTH 556 0
DWIDTH 10 0
BBX 8 12 1 0
BITMAP
0300
0300
0300
0300
0300
0300
0300
c300
c300
c300
6600
3c00
ENDCHAR
STARTCHAR 75
ENCODING 75
SWIDTH 556 0
DWIDTH 10 0
BBX 8 12 1 0
BITMAP
c100
c300
c600
cc00
d800
f000
f800
cc00
c600
c600
c300
c300
ENDCHAR
STARTCHAR 76
ENCODING 76
SWIDTH 556 0
DWIDTH 10 0
BBX 8 12 1 0
BITMAP
c000
c000
c000
c000
c000
c000
c000
c000
c000
c000
c000
ff00
ENDCHAR
STARTCHAR 77
ENCODING 77
SWIDTH 556 0
DWIDTH 10 0
BBX 8 12 1 0
BITMAP
c300
c300
e700
e700
ff00
db00
db00
c300
c300
c300
c300
c300
ENDCHAR
STARTCHAR 78
ENCODING 78
SWIDTH 556 0
DWIDTH 10 0
BBX 8 12 1 0
BITMAP
c300
c300
e300
e300
f300
d300
db00
cb00
cf00
c700
c700
c300
ENDCHAR
STARTCHAR 79
ENCODING 79
SWIDTH 556 0
DWIDTH 10 0
BBX 8 12 1 0
BITMAP
3c00
6600
c300
c300
c300
c300
c300
c300
c300
c300
6600
3c00
ENDCHAR
STARTCHAR 80
ENCODING 80
SWIDTH 556 0
DWIDTH 10 0
BBX 8 12 1 0
BITMAP
fc00
c600
c300
c300
c300
c600
fc00
c000
c000
c000
c000
c000
ENDCHAR
STARTCHAR 81
ENCODING 81
SWIDTH 556 0
DWIDTH 10 0
BBX 8 15 1 -3
BITMAP
3c00
6600
c300
c300
c300
c300
c300
c300
c300
d300
7600
3c00
0800
0c00
0700
ENDCHAR
STARTCHAR 82
ENCODING 82
SWIDTH 556 0
DWIDTH 10 0
BBX 8 12 1 0
BITMAP
fc00
c600
c300
c300
c300
c600
fc00
cc00
c600
c600
c300
c300
ENDCHAR
STARTCHAR 83
ENCODING 83
SWIDTH 556 0
DWIDTH 10 0
BBX 8 12 1 0
BITMAP
3c00
6600
c300
c000
e000
7c00
3e00
0700
c300
c300
6600
3c00
ENDCHAR
STARTCHAR 84
ENCODING 84
SWIDTH 556 0
DWIDTH 10 0
BBX 8 12 1 0
BITMAP
ff00
1800
1800
1800
1800
1800
1800
1800
1800
1800
1800
1800
ENDCHAR
STARTCHAR 85
ENCODING 85
SWIDTH 556 0
DWIDTH 10 0
BBX 8 12 1 0
BITMAP
c300
c300
c300
c300
c300
c300
c300
c300
c300
c300
6600
3c00
ENDCHAR
STARTCHAR 86
ENCODING 86
SWIDTH 556 0
DWIDTH 10 0
BBX 8 12 1 0
BITMAP
c300
c300
c300
c300
c300
6600
6600
6600
3c00
3c00
1800
1800
ENDCHAR
STARTCHAR 87
ENCODING 87
SWIDTH 556 0
DWIDTH 10 0
BBX  9 12 0 0
BITMAP
c180
c980
c980
c980
dd80
dd80
7f00
7f00
3600
3600
2200
2200
ENDCHAR
STARTCHAR 88
ENCODING 88
SWIDTH 556 0
DWIDTH 10 0
BBX 8 12 1 0
BITMAP
c300
c300
6600
6600
3c00
1800
3c00
6600
6600
c300
c300
c300
ENDCHAR
STARTCHAR 89
ENCODING 89
SWIDTH 556 0
DWIDTH 10 0
BBX 8 12 1 0
BITMAP
c300
c300
c300
6600
6600
3c00
3c00
1800
1800
1800
1800
1800
ENDCHAR
STARTCHAR 90
ENCODING 90
SWIDTH 556 0
DWIDTH 10 0
BBX 8 12 1 0
BITMAP
ff00
0300
0600
0600
0c00
1800
1800
3000
6000
6000
c000
ff00
ENDCHAR
STARTCHAR 91
ENCODING 91
SWIDTH 556 0
DWIDTH 10 0
BBX 5 16 3 -3
BITMAP
f800
c000
c000
c000
c000
c000
c000
c000
c000
c000
c000
c000
c000
c000
c000
f800
ENDCHAR
STARTCHAR 92
ENCODING 92
SWIDTH 556 0
DWIDTH 10 0
BBX 8 14 1 -1
BITMAP
c000
c000
6000
6000
3000
3000
1800
1800
0c00
0c00
0600
0600
0300
0300
ENDCHAR
STARTCHAR 93
ENCODING 93
SWIDTH 556 0
DWIDTH 10 0
BBX 5 16 3 -3
BITMAP
f800
1800
1800
1800
1800
1800
1800
1800
1800
1800
1800
1800
1800
1800
1800
f800
ENDCHAR
STARTCHAR 94
ENCODING 94
SWIDTH 556 0
DWIDTH 10 0
BBX 7 4 1 8
BITMAP
1000
3800
6c00
c600
ENDCHAR
STARTCHAR 95
ENCODING 95
SWIDTH 556 0
DWIDTH 10 0
BBX 10 2 0 -3
BITMAP
ff0000
ff0000
ENDCHAR
STARTCHAR 96
ENCODING 96
SWIDTH 556 0
DWIDTH 10 0
BBX 4 4 2 8
BITMAP
c000
c000
6000
3000
ENDCHAR
STARTCHAR 97
ENCODING 97
SWIDTH 556 0
DWIDTH 10 0
BBX 8 9 1 0
BITMAP
7c00
ce00
0600
3e00
6600
c600
c600
ce00
7b00
ENDCHAR
STARTCHAR 98
ENCODING 98
SWIDTH 556 0
DWIDTH 10 0
BBX 8 12 1 0
BITMAP
c000
c000
c000
dc00
e600
c300
c300
c300
c300
c300
e600
dc00
ENDCHAR
STARTCHAR 99
ENCODING 99
SWIDTH 556 0
DWIDTH 10 0
BBX 8 9 1 0
BITMAP
3c00
6600
c300
c000
c000
c000
c300
6600
3c00
ENDCHAR
STARTCHAR 100
ENCODING 100
SWIDTH 556 0
DWIDTH 10 0
BBX 8 12 1 0
BITMAP
0300
0300
0300
3b00
6700
c300
c300
c300
c300
c300
6700
3b00
ENDCHAR
STARTCHAR 101
ENCODING 101
SWIDTH 556 0
DWIDTH 10 0
BBX 8 9 1 0
BITMAP
3c00
6600
c300
c300
ff00
c000
c000
6300
3e00
ENDCHAR
STARTCHAR 102
ENCODING 102
SWIDTH 556 0
DWIDTH 10 0
BBX 7 12 1 0
BITMAP
1e00
3000
3000
fe00
3000
3000
3000
3000
3000
3000
3000
3000
ENDCHAR
STARTCHAR 103
ENCODING 103
SWIDTH 556 0
DWIDTH 10 0
BBX 8 13 1 -4
BITMAP
3b00
6700
c300
c300
c300
c300
c300
6700
3b00
0300
0300
c600
7c00
ENDCHAR
STARTCHAR 104
ENCODING 104
SWIDTH 556 0
DWIDTH 10 0
BBX 8 12 1 0
BITMAP
c000
c000
c000
dc00
e600
c300
c300
c300
c300
c300
c300
c300
ENDCHAR
STARTCHAR 105
ENCODING 105
SWIDTH 556 0
DWIDTH 10 0
BBX 4 12 3 0
BITMAP
3000
3000
0000
f000
3000
3000
3000
3000
3000
3000
3000
3000
ENDCHAR
STARTCHAR 106
ENCODING 106
SWIDTH 556 0
DWIDTH 10 0
BBX 7 16 1 -4
BITMAP
0600
0600
0000
1e00
0600
0600
0600
0600
0600
0600
0600
0600
c600
c600
6c00
3800
ENDCHAR
STARTCHAR 107
ENCODING 107
SWIDTH 556 0
DWIDTH 10 0
BBX 8 12 1 0
BITMAP
c000
c000
c000
c300
c600
cc00
f800
f000
d800
cc00
c600
c300
ENDCHAR
STARTCHAR 108
ENCODING 108
SWIDTH 556 0
DWIDTH 10 0
BBX 4 12 3 0
BITMAP
f000
3000
3000
3000
3000
3000
3000
3000
3000
3000
3000
3000
ENDCHAR
STARTCHAR 109
ENCODING 109
SWIDTH 556 0
DWIDTH 10 0
BBX 8 9 1 0
BITMAP
b600
ff00
db00
db00
db00
db00
db00
db00
db00
ENDCHAR
STARTCHAR 110
ENCODING 110
SWIDTH 556 0
DWIDTH 10 0
BBX 8 9 1 0
BITMAP
dc00
e600
c300
c300
c300
c300
c300
c300
c300
ENDCHAR
STARTCHAR 111
ENCODING 111
SWIDTH 556 0
DWIDTH 10 0
BBX 8 9 1 0
BITMAP
3c00
6600
c300
c300
c300
c300
c300
6600
3c00
ENDCHAR
STARTCHAR 112
ENCODING 112
SWIDTH 556 0
DWIDTH 10 0
BBX 8 13 1 -4
BITMAP
dc00
e600
c300
c300
c300
c300
c300
e600
dc00
c000
c000
c000
c000
ENDCHAR
STARTCHAR 113
ENCODING 113
SWIDTH 556 0
DWIDTH 10 0
BBX 8 13 1 -4
BITMAP
3b00
6700
c300
c300
c300
c300
c300
6700
3b00
0300
0300
0300
0300
ENDCHAR
STARTCHAR 114
ENCODING 114
SWIDTH 556 0
DWIDTH 10 0
BBX 8 9 1 0
BITMAP
de00
f300
c000
c000
c000
c000
c000
c000
c000
ENDCHAR
STARTCHAR 115
ENCODING 115
SWIDTH 556 0
DWIDTH 10 0
BBX 8 9 1 0
BITMAP
7e00
c300
c100
f000
7e00
0f00
8300
c300
7e00
ENDCHAR
STARTCHAR 116
ENCODING 116
SWIDTH 556 0
DWIDTH 10 0
BBX 7 11 2 0
BITMAP
3000
3000
fc00
3000
3000
3000
3000
3000
3000
1800
0e00
ENDCHAR
STARTCHAR 117
ENCODING 117
SWIDTH 556 0
DWIDTH 10 0
BBX 8 9 1 0
BITMAP
c300
c300
c300
c300
c300
c300
c300
6700
3b00
ENDCHAR
STARTCHAR 118
ENCODING 118
SWIDTH 556 0
DWIDTH 10 0
BBX 8 9 1 0
BITMAP
c300
c300
c300
6600
6600
3c00
3c00
1800
1800
ENDCHAR
STARTCHAR 119
ENCODING 119
SWIDTH 556 0
DWIDTH 10 0
BBX 8 9 1 0
BITMAP
c300
c300
db00
db00
db00
db00
db00
ff00
6600
ENDCHAR
STARTCHAR 120
ENCODING 120
SWIDTH 556 0
DWIDTH 10 0
BBX 8 9 1 0
BITMAP
c300
c300
6600
3c00
1800
3c00
6600
c300
c300
ENDCHAR
STARTCHAR 121
ENCODING 121
SWIDTH 556 0
DWIDTH 10 0
BBX 8 13 1 -4
BITMAP
c300
c300
c300
c300
c300
c300
c300
6700
3b00
0300
0300
c600
7c00
ENDCHAR
STARTCHAR 122
ENCODING 122
SWIDTH 556 0
DWIDTH 10 0
BBX 8 9 1 0
BITMAP
ff00
0300
0600
0c00
1800
3000
6000
c000
ff00
ENDCHAR
STARTCHAR 123
ENCODING 123
SWIDTH 556 0
DWIDTH 10 0
BBX 7 17 2 -4
BITMAP
0e00
1800
3000
3000
3000
3000
3000
3000
e000
3000
3000
3000
3000
3000
3000
1800
0e00
ENDCHAR
STARTCHAR 124
ENCODING 124
SWIDTH 556 0
DWIDTH 10 0
BBX 2 17 4 -4
BITMAP
c000
c000
c000
c000
c000
c000
c000
c000
c000
c000
c000
c000
c000
c000
c000
c000
c000
ENDCHAR
STARTCHAR 125
ENCODING 125
SWIDTH 556 0
DWIDTH 10 0
BBX 7 17 1 -4
BITMAP
e000
3000
1800
1800
1800
1800
1800
1800
0e00
1800
1800
1800
1800
1800
1800
3000
e000
ENDCHAR
STARTCHAR 126
ENCODING 126
SWIDTH 556 0
DWIDTH 10 0
BBX 6 3 2 9
BITMAP
6400
fc00
9800
ENDCHAR
ENDFONT
